<svg width="415" height="156" viewBox="0 0 415 156" fill="none" xmlns="http://www.w3.org/2000/svg">
<mask id="mask0_0_1" style="mask-type:alpha" maskUnits="userSpaceOnUse" x="0" y="0" width="415" height="156">
<rect x="5" y="5" width="405" height="146" rx="45" fill="#D9D9D9" stroke="#000B76" stroke-width="10"/>
</mask>
<g mask="url(#mask0_0_1)">
<path d="M-25 90.2946L2.43333 78.0588C29.8667 65.5932 84.7333 41.4663 139.6 47.3831C194.467 53.5298 249.333 90.2946 304.2 90.2946C359.067 90.2946 413.933 53.5298 468.8 59.6764C523.667 65.5932 578.533 114.996 633.4 130.104C688.267 145.442 743.133 127.06 770.567 117.868L798 108.677V-20H770.567C743.133 -20 688.267 -20 633.4 -20C578.533 -20 523.667 -20 468.8 -20C413.933 -20 359.067 -20 304.2 -20C249.333 -20 194.467 -20 139.6 -20C84.7333 -20 29.8667 -20 2.43333 -20H-25V90.2946Z" fill="#A2D9FF"/>
<g filter="url(#filter0_d_0_1)">
<path d="M64.2353 62.8235V65.7647H67.1765V71.6471H64.2353V74.5882H46.5882V77.5294H64.2353V80.4706H67.1765V98.1176H64.2353V101.059H61.2941V104H28.9412V101.059H26V92.2353H28.9412V89.2941H52.4706V86.3529H28.9412V83.4118H26V68.7059H28.9412V71.6471H31.8824V68.7059H34.8235V65.7647H31.8824V62.8235H64.2353ZM111.306 62.8235V65.7647H114.247V98.1176H111.306V101.059H108.364V104H78.9527V101.059H76.0115V98.1176H73.0703V65.7647H76.0115V71.6471H78.9527V68.7059H81.8938V65.7647H76.0115V62.8235H90.7174V65.7647H93.6585V92.2353H99.5409V65.7647H102.482V62.8235H111.306ZM158.376 65.7647V68.7059H161.317V80.4706H158.376V83.4118H161.317V98.1176H158.376V101.059H155.435V104H123.082V101.059H120.141V65.7647H123.082V71.6471H126.023V68.7059H128.964V65.7647H123.082V62.8235H155.435V65.7647H158.376ZM149.552 77.5294V71.6471H140.729V77.5294H149.552ZM140.729 92.2353H149.552V86.3529H140.729V92.2353ZM205.446 62.8235V65.7647H208.387V68.7059H205.446V71.6471H187.799V77.5294H205.446V80.4706H208.387V83.4118H205.446V86.3529H187.799V101.059H184.858V104H170.152V101.059H167.211V65.7647H170.152V71.6471H173.093V68.7059H176.034V65.7647H170.152V62.8235H205.446ZM249.575 92.2353V95.1765H252.517V101.059H249.575V104H217.222V101.059H214.281V65.7647H217.222V71.6471H220.164V68.7059H223.105V65.7647H217.222V62.8235H231.928V65.7647H234.869V92.2353H249.575ZM296.657 65.7647V68.7059H299.598V98.1176H296.657V101.059H293.716V104H264.304V101.059H261.363V98.1176H258.422V68.7059H261.363V71.6471H264.304V68.7059H267.245V65.7647H264.304V62.8235H293.716V65.7647H296.657ZM279.01 92.2353H287.834V71.6471H279.01V92.2353ZM346.669 62.8235V65.7647H349.61V101.059H346.669V104H337.845V101.059H334.904V98.1176H331.963V95.1765H329.022V98.1176H326.08V101.059H323.139V104H308.433V101.059H305.492V65.7647H308.433V71.6471H311.375V68.7059H314.316V65.7647H308.433V62.8235H323.139V65.7647H326.08V83.4118H329.022V80.4706H331.963V83.4118H334.904V65.7647H337.845V62.8235H346.669ZM393.727 62.8235V65.7647H396.669V74.5882H393.727V77.5294H390.786V80.4706H387.845V83.4118H384.904V86.3529H381.963V89.2941H393.727V92.2353H396.669V101.059H393.727V104H358.433V101.059H355.492V92.2353H358.433V89.2941H361.375V86.3529H364.316V83.4118H367.257V80.4706H370.198V77.5294H373.139V74.5882H358.433V71.6471H361.375V68.7059H364.316V65.7647H358.433V62.8235H393.727ZM358.433 65.7647V71.6471H355.492V65.7647H358.433Z" fill="#000B76"/>
</g>
<rect width="415" height="156" rx="50" stroke="#000B76" stroke-width="20"/>
</g>
<defs>
<filter id="filter0_d_0_1" x="21" y="62.8235" width="380.669" height="51.1765" filterUnits="userSpaceOnUse" color-interpolation-filters="sRGB">
<feFlood flood-opacity="0" result="BackgroundImageFix"/>
<feColorMatrix in="SourceAlpha" type="matrix" values="0 0 0 0 0 0 0 0 0 0 0 0 0 0 0 0 0 0 127 0" result="hardAlpha"/>
<feOffset dy="5"/>
<feGaussianBlur stdDeviation="2.5"/>
<feComposite in2="hardAlpha" operator="out"/>
<feColorMatrix type="matrix" values="0 0 0 0 0 0 0 0 0 0 0 0 0 0 0 0 0 0 0.25 0"/>
<feBlend mode="normal" in2="BackgroundImageFix" result="effect1_dropShadow_0_1"/>
<feBlend mode="normal" in="SourceGraphic" in2="effect1_dropShadow_0_1" result="shape"/>
</filter>
</defs>
</svg>
