<svg width="415" height="156" viewBox="0 0 415 156" fill="none" xmlns="http://www.w3.org/2000/svg">
<mask id="mask0_0_1" style="mask-type:alpha" maskUnits="userSpaceOnUse" x="0" y="0" width="415" height="156">
<rect x="5" y="5" width="405" height="146" rx="45" fill="#D9D9D9" stroke="#000B76" stroke-width="10"/>
</mask>
<g mask="url(#mask0_0_1)">
<rect width="415" height="157" fill="#F5F9FE"/>
<path d="M-65 110.295L-37.5667 98.0588C-10.1333 85.5932 44.7333 61.4663 99.6 67.3831C154.467 73.5298 209.333 110.295 264.2 110.295C319.067 110.295 373.933 73.5298 428.8 79.6764C483.667 85.5932 538.533 134.996 593.4 150.104C648.267 165.442 703.133 147.06 730.567 137.868L758 128.677V0H730.567C703.133 0 648.267 0 593.4 0C538.533 0 483.667 0 428.8 0C373.933 0 319.067 0 264.2 0C209.333 0 154.467 0 99.6 0C44.7333 0 -10.1333 0 -37.5667 0H-65V110.295Z" fill="#A2D9FF"/>
<g filter="url(#filter0_d_0_1)">
<path d="M63.7059 61.4706V64.2941H66.5294V69.9412H63.7059V72.7647H46.7647V75.5882H63.7059V78.4118H66.5294V95.3529H63.7059V98.1765H60.8824V101H29.8235V98.1765H27V89.7059H29.8235V86.8824H52.4118V84.0588H29.8235V81.2353H27V67.1176H29.8235V69.9412H32.6471V67.1176H35.4706V64.2941H32.6471V61.4706H63.7059ZM108.893 61.4706V64.2941H111.717V95.3529H108.893V98.1765H106.07V101H77.8346V98.1765H75.011V95.3529H72.1875V64.2941H75.011V69.9412H77.8346V67.1176H80.6581V64.2941H75.011V61.4706H89.1287V64.2941H91.9522V89.7059H97.5993V64.2941H100.423V61.4706H108.893ZM154.081 64.2941V67.1176H156.904V78.4118H154.081V81.2353H156.904V95.3529H154.081V98.1765H151.257V101H120.199V98.1765H117.375V64.2941H120.199V69.9412H123.022V67.1176H125.846V64.2941H120.199V61.4706H151.257V64.2941H154.081ZM145.61 75.5882V69.9412H137.14V75.5882H145.61ZM137.14 89.7059H145.61V84.0588H137.14V89.7059ZM199.268 61.4706V64.2941H202.092V67.1176H199.268V69.9412H182.327V75.5882H199.268V78.4118H202.092V81.2353H199.268V84.0588H182.327V98.1765H179.504V101H165.386V98.1765H162.562V64.2941H165.386V69.9412H168.21V67.1176H171.033V64.2941H165.386V61.4706H199.268ZM241.632 89.7059V92.5294H244.456V98.1765H241.632V101H210.574V98.1765H207.75V64.2941H210.574V69.9412H213.397V67.1176H216.221V64.2941H210.574V61.4706H224.691V64.2941H227.515V89.7059H241.632ZM286.831 64.2941V67.1176H289.654V95.3529H286.831V98.1765H284.007V101H255.772V98.1765H252.949V95.3529H250.125V67.1176H252.949V69.9412H255.772V67.1176H258.596V64.2941H255.772V61.4706H284.007V64.2941H286.831ZM269.89 89.7059H278.36V69.9412H269.89V89.7059ZM334.842 61.4706V64.2941H337.665V98.1765H334.842V101H326.371V98.1765H323.548V95.3529H320.724V92.5294H317.901V95.3529H315.077V98.1765H312.254V101H298.136V98.1765H295.312V64.2941H298.136V69.9412H300.96V67.1176H303.783V64.2941H298.136V61.4706H312.254V64.2941H315.077V81.2353H317.901V78.4118H320.724V81.2353H323.548V64.2941H326.371V61.4706H334.842ZM380.018 61.4706V64.2941H382.842V72.7647H380.018V75.5882H377.195V78.4118H374.371V81.2353H371.548V84.0588H368.724V86.8824H380.018V89.7059H382.842V98.1765H380.018V101H346.136V98.1765H343.312V89.7059H346.136V86.8824H348.96V84.0588H351.783V81.2353H354.607V78.4118H357.43V75.5882H360.254V72.7647H346.136V69.9412H348.96V67.1176H351.783V64.2941H346.136V61.4706H380.018ZM346.136 64.2941V69.9412H343.312V64.2941H346.136Z" fill="#000B76"/>
</g>
<rect width="415" height="156" rx="50" stroke="#000B76" stroke-width="20"/>
</g>
<defs>
<filter id="filter0_d_0_1" x="22" y="61.4706" width="365.842" height="49.5294" filterUnits="userSpaceOnUse" color-interpolation-filters="sRGB">
<feFlood flood-opacity="0" result="BackgroundImageFix"/>
<feColorMatrix in="SourceAlpha" type="matrix" values="0 0 0 0 0 0 0 0 0 0 0 0 0 0 0 0 0 0 127 0" result="hardAlpha"/>
<feOffset dy="5"/>
<feGaussianBlur stdDeviation="2.5"/>
<feComposite in2="hardAlpha" operator="out"/>
<feColorMatrix type="matrix" values="0 0 0 0 0 0 0 0 0 0 0 0 0 0 0 0 0 0 0.25 0"/>
<feBlend mode="normal" in2="BackgroundImageFix" result="effect1_dropShadow_0_1"/>
<feBlend mode="normal" in="SourceGraphic" in2="effect1_dropShadow_0_1" result="shape"/>
</filter>
</defs>
</svg>
